HIERARCHY
ROOT Hips
{
	OFFSET 0.00000 0.00000 0.00000
	CHANNELS 6 Xposition Yposition Zposition Zrotation Yrotation Xrotation 
	JOINT RightUpLegDummy
	{
		OFFSET 0 0 0
		CHANNELS 3 Zrotation Yrotation Xrotation
		JOINT RightUpLeg
		{
			OFFSET -3.52197 -3.41223 0.04002
			CHANNELS 3 Zrotation Yrotation Xrotation
			JOINT RightLeg
			{
				OFFSET 0.00006 -17.42390 1.60435
				CHANNELS 3 Zrotation Yrotation Xrotation
				JOINT RightFoot
				{
					OFFSET 0.06153 -16.50078 -1.63901
					CHANNELS 3 Zrotation Yrotation Xrotation
					JOINT RightToes
					{
						OFFSET 0.00298 -1.73825 3.34613
						CHANNELS 3 Zrotation Yrotation Xrotation
						End Site
						{
							OFFSET 0.00480 -0.05416 3.85043
						}
					}
				}
			}
		}
	}
	JOINT SpineDummy
	{
		OFFSET 0 0 0
		CHANNELS 3 Zrotation Yrotation Xrotation
		JOINT Spine
		{
			OFFSET 0.00000 4.68130 0.00000
			CHANNELS 3 Zrotation Yrotation Xrotation
			JOINT Spine1
			{
				OFFSET -0.00000 10.10138 0.05002
				CHANNELS 3 Zrotation Yrotation Xrotation
				JOINT HEadDummy
				{
					OFFSET 0 0 0
					CHANNELS 3 Zrotation Yrotation Xrotation
					JOINT Head
					{
						OFFSET -0.00000 3.43865 0.00438
						CHANNELS 3 Zrotation Yrotation Xrotation
						End Site
						{
							OFFSET -0.11417 5.02924 0.98962
						}
					}
				}
				JOINT LeftShoulder1Dummy
				{
					OFFSET 0 0 0
					CHANNELS 3 Zrotation Yrotation Xrotation
					JOINT LeftShoulder1
					{
						OFFSET 3.53937 -0.14262 -0.08662
						CHANNELS 3 Zrotation Yrotation Xrotation
						JOINT LeftArm
						{
							OFFSET 4.04833 -0.00133 0.12681
							CHANNELS 3 Zrotation Yrotation Xrotation
							JOINT LeftForeArm
							{
								OFFSET 10.33880 -0.01036 -0.55515
								CHANNELS 3 Zrotation Yrotation Xrotation
								JOINT LeftHand
								{
									OFFSET 8.69677 0.07543 0.40060
									CHANNELS 3 Zrotation Yrotation Xrotation
									End Site
									{
										OFFSET 5.28377 -0.21905 0.59205
									}
								}
							}
						}
					}
				}
				JOINT RightShoulderDummy
				{
					OFFSET 0 0 0
					CHANNELS 3 Zrotation Yrotation Xrotation
					JOINT RightShoulder
					{
						OFFSET -3.53937 -0.14262 -0.08660
						CHANNELS 3 Zrotation Yrotation Xrotation
						JOINT RightArm
						{
							OFFSET -4.04833 -0.00133 0.12683
							CHANNELS 3 Zrotation Yrotation Xrotation
							JOINT RightForeArm
							{
								OFFSET -10.37987 -0.01039 -0.55511
								CHANNELS 3 Zrotation Yrotation Xrotation
								JOINT RightHand
								{
									OFFSET -8.67398 0.07538 0.40058
									CHANNELS 3 Zrotation Yrotation Xrotation
									End Site
									{
										OFFSET -5.24810 -0.21916 0.59204
									}
								}
							}
						}
					}
				}
			}
		}
	}
	JOINT LeftUpLegDummy
	{
		OFFSET 0 0 0
		CHANNELS 3 Zrotation Yrotation Xrotation
		JOINT LeftUpLeg
		{
			OFFSET 3.52197 -3.41223 0.04002
			CHANNELS 3 Zrotation Yrotation Xrotation
			JOINT LeftLeg
			{
				OFFSET -0.00012 -17.42399 1.60337
				CHANNELS 3 Zrotation Yrotation Xrotation
				JOINT LeftFoot
				{
					OFFSET -0.09972 -16.50070 -1.63802
					CHANNELS 3 Zrotation Yrotation Xrotation
					JOINT LeftToes
					{
						OFFSET -0.01575 -1.73823 3.34611
						CHANNELS 3 Zrotation Yrotation Xrotation
						End Site
						{
							OFFSET 0.03150 -0.01868 3.85031
						}
					}
				}
			}
		}
	}
}
MOTION
Frames: 19
Frame Time: 0.033333
0.0190 40.3028 -79.2220 -2.0553 -7.1302 -1.4165 0.0000 0.0000 0.0000 3.8802 0.0415 0.2001 -1.1148 -2.9416 3.6201 -2.8294 0.2109 -2.1771 0.0000 -0.0000 -0.0000 0.0000 0.0000 0.0000 0.2913 -0.2576 1.5868 3.1826 -0.8914 0.4259 -0.0000 0.0000 -0.0000 1.1080 -3.3942 -0.2250 -0.0000 0.0000 -0.0000 -34.0745 -2.7793 2.5171 -44.8273 -16.1562 -18.0633 -9.9029 5.0743 50.1415 15.3747 -4.2129 -1.2430 -0.0000 0.0000 -0.0000 33.9853 5.0417 3.4190 41.9274 6.7136 -14.8545 11.0316 1.2329 25.2490 -11.8933 2.3471 -0.7687 0.0000 0.0000 0.0000 0.5688 1.5860 0.0448 1.3968 7.6185 6.6670 3.8299 -0.1598 -5.3535 0.0000 0.0000 -0.0000
0.0190 40.3028 -79.2181 -2.0553 -7.1320 -1.4020 0.0000 0.0000 0.0000 3.8802 0.0415 0.1980 -1.1142 -2.9512 3.6069 -2.8041 0.2093 -2.1867 0.0000 -0.0000 -0.0000 0.0000 0.0000 0.0000 0.2614 -0.2576 1.5986 3.2104 -0.8914 0.3646 -0.0000 0.0000 -0.0000 1.1488 -3.4326 -0.2244 -0.0000 0.0000 -0.0000 -34.0694 -2.7734 2.5171 -44.8024 -16.1360 -18.0407 -9.9209 5.0713 50.2351 15.3513 -4.2560 -1.2447 -0.0000 0.0000 -0.0000 33.9998 5.0417 3.4190 41.8918 6.6411 -14.8656 11.0322 1.2285 25.3031 -11.7834 2.4420 -0.7733 0.0000 0.0000 0.0000 0.5629 1.5860 0.0282 1.4124 7.6576 6.6806 3.8255 -0.1595 -5.3535 0.0000 0.0000 -0.0000
0.0197 40.3028 -79.2114 -2.0553 -7.1415 -1.3636 0.0000 0.0000 0.0000 3.8777 0.0404 0.1689 -1.1087 -2.9415 3.6015 -2.7889 0.2083 -2.1912 0.0000 -0.0000 -0.0000 0.0000 0.0000 0.0000 0.2452 -0.2576 1.5889 3.2030 -0.8914 0.2944 -0.0000 0.0000 -0.0000 1.2583 -3.5038 -0.2638 -0.0000 0.0000 -0.0000 -34.0456 -2.7663 2.5127 -44.7340 -16.1069 -17.9599 -9.9848 5.0682 50.3132 15.4517 -4.1746 -1.2429 -0.0000 0.0000 -0.0000 34.0198 5.0440 3.4217 41.8366 6.5341 -14.8775 11.0377 1.1896 25.3721 -11.6956 2.5257 -0.7771 0.0000 0.0000 0.0000 0.5528 1.5792 -0.0105 1.4371 7.7224 6.6987 3.8135 -0.1587 -5.3535 0.0000 0.0000 -0.0000
0.0232 40.3028 -79.2030 -2.0528 -7.1549 -1.3308 0.0000 0.0000 0.0000 3.8611 0.0296 0.1405 -1.0940 -2.9104 3.6032 -2.7900 0.2084 -2.1866 0.0000 -0.0000 -0.0000 0.0000 0.0000 0.0000 0.2770 -0.2840 1.5538 3.0952 -0.8986 0.2885 -0.0000 0.0000 -0.0000 1.4040 -3.5912 -0.3495 -0.0000 0.0000 -0.0000 -33.9461 -2.7454 2.4981 -44.6943 -16.1077 -18.0112 -9.9570 5.0647 50.4369 15.6487 -4.0487 -1.2433 -0.0000 0.0000 -0.0000 34.0862 5.0546 3.4316 41.7558 6.4797 -14.8910 11.0479 1.0858 25.3951 -11.7842 2.4148 -0.7730 0.0000 0.0000 0.0000 0.5323 1.5602 -0.0254 1.4565 7.7662 6.6854 3.8081 -0.1584 -5.3507 0.0000 0.0000 -0.0000
0.0288 40.3028 -79.1918 -2.0378 -7.1538 -1.3209 0.0000 0.0000 0.0000 3.8250 -0.0016 0.1414 -1.0763 -2.8806 3.6080 -2.7873 0.2082 -2.1917 0.0000 -0.0000 -0.0000 0.0000 0.0000 0.0000 0.3055 -0.3388 1.5272 2.9641 -0.9317 0.3094 -0.0000 0.0000 -0.0000 1.5280 -3.6562 -0.4124 -0.0000 0.0000 -0.0000 -33.8026 -2.7015 2.4716 -44.7044 -16.1292 -18.3144 -9.7596 5.0595 50.6855 15.6163 -4.0346 -1.2388 -0.0000 0.0000 -0.0000 34.2030 5.0750 3.4500 41.6346 6.4689 -14.9153 11.0576 0.9328 25.3722 -11.9577 2.1736 -0.7649 0.0000 0.0000 0.0000 0.4959 1.5245 0.0002 1.4748 7.7835 6.6416 3.8189 -0.1591 -5.3403 0.0000 0.0000 -0.0000
0.0327 40.3028 -79.1772 -2.0258 -7.1498 -1.3118 0.0000 0.0000 0.0000 3.7969 -0.0274 0.1523 -1.0638 -2.8627 3.6137 -2.7862 0.2082 -2.2155 0.0000 -0.0000 -0.0000 0.0000 0.0000 0.0000 0.2736 -0.3886 1.4971 2.9449 -0.9781 0.3120 -0.0000 0.0000 -0.0000 1.5970 -3.6615 -0.4049 -0.0000 0.0000 -0.0000 -33.7589 -2.6787 2.4597 -44.6528 -16.1160 -18.6551 -9.5558 5.0553 50.8996 15.2781 -4.0651 -1.2147 -0.0000 0.0000 -0.0000 34.2809 5.0914 3.4634 41.5067 6.4373 -14.9658 11.0573 0.7692 25.3675 -12.0279 2.0633 -0.7615 0.0000 0.0000 0.0000 0.4603 1.4861 0.0202 1.5040 7.8040 6.6233 3.8204 -0.1592 -5.3455 0.0000 0.0000 -0.0000
0.0343 40.3028 -79.1598 -2.0315 -7.1667 -1.2949 0.0000 0.0000 0.0000 3.7969 -0.0296 0.1579 -1.0612 -2.8466 3.6242 -2.7938 0.2088 -2.2476 0.0000 -0.0000 -0.0000 0.0000 0.0000 0.0000 0.2138 -0.4033 1.4184 3.0331 -1.0085 0.3433 -0.0000 0.0000 -0.0000 1.6260 -3.6223 -0.3698 -0.0000 0.0000 -0.0000 -33.8717 -2.7301 2.4873 -44.4682 -16.0514 -18.7640 -9.5229 5.0539 50.9565 15.0749 -4.0395 -1.1947 -0.0000 0.0000 -0.0000 34.2515 5.0905 3.4604 41.4241 6.3787 -15.0640 11.0358 0.5987 25.4584 -11.9463 2.2067 -0.7656 0.0000 0.0000 0.0000 0.4486 1.4687 0.0122 1.5375 7.8388 6.6668 3.7886 -0.1571 -5.3838 0.0000 0.0000 -0.0000
0.0369 40.3012 -79.1407 -2.0473 -7.2011 -1.3039 0.0000 0.0000 0.0000 3.8090 -0.0268 0.1891 -1.0629 -2.8202 3.6462 -2.8056 0.2097 -2.2813 0.0000 -0.0000 -0.0000 0.0000 0.0000 0.0000 0.2050 -0.3969 1.3247 3.0863 -1.0146 0.4353 -0.0000 0.0000 -0.0000 1.6485 -3.5802 -0.3598 -0.0000 0.0000 -0.0000 -34.0086 -2.8263 2.5343 -44.2652 -15.9707 -18.6791 -9.6015 5.0523 50.9789 15.3176 -4.0319 -1.2139 -0.0000 0.0000 -0.0000 34.1681 5.0782 3.4482 41.3897 6.3390 -15.1884 11.0004 0.4238 25.6223 -11.8156 2.4414 -0.7722 0.0000 0.0000 0.0000 0.4549 1.4756 0.0261 1.5589 7.8718 6.7371 3.7490 -0.1546 -5.4450 0.0000 0.0000 -0.0000
0.0434 40.2991 -79.1225 -2.0595 -7.2356 -1.3511 0.0000 0.0000 0.0000 3.8083 -0.0425 0.2621 -1.0570 -2.7776 3.6639 -2.8101 0.2101 -2.3174 0.0000 -0.0000 -0.0000 0.0000 0.0000 0.0000 0.2604 -0.4037 1.3096 3.0384 -1.0168 0.5007 -0.0000 0.0000 -0.0000 1.6775 -3.5494 -0.3482 -0.0000 0.0000 -0.0000 -34.0525 -2.8848 2.5606 -44.1702 -15.8856 -18.5947 -9.6552 5.0508 51.0080 15.6513 -4.0873 -1.2484 -0.0000 0.0000 -0.0000 34.1134 5.0687 3.4396 41.3721 6.3196 -15.2606 10.9827 0.3033 25.7256 -11.7295 2.5519 -0.7762 0.0000 0.0000 0.0000 0.4519 1.4812 0.0875 1.5778 7.9052 6.7897 3.7392 -0.1539 -5.5064 0.0000 0.0000 -0.0000
0.0527 40.2979 -79.1066 -2.0733 -7.2817 -1.3873 0.0000 0.0000 0.0000 3.8014 -0.0634 0.3322 -1.0391 -2.7139 3.6561 -2.8108 0.2102 -2.3445 0.0000 -0.0000 -0.0000 0.0000 0.0000 0.0000 0.3261 -0.4225 1.3603 2.9800 -1.0269 0.4784 -0.0000 0.0000 -0.0000 1.7020 -3.5431 -0.2920 -0.0000 0.0000 -0.0000 -34.0709 -2.8856 2.5621 -44.1252 -15.7988 -18.5474 -9.6968 5.0545 50.8734 15.6079 -4.1027 -1.2468 -0.0000 0.0000 -0.0000 34.0809 5.0636 3.4348 41.3592 6.2951 -15.2582 10.9895 0.2704 25.7174 -11.6929 2.5318 -0.7772 0.0000 0.0000 0.0000 0.4387 1.4704 0.1414 1.6132 7.9627 6.8277 3.7439 -0.1542 -5.5580 0.0000 0.0000 -0.0000
0.0619 40.2970 -79.0916 -2.1030 -7.3692 -1.3746 0.0000 0.0000 0.0000 3.8122 -0.0606 0.3588 -1.0186 -2.6262 3.6235 -2.8045 0.2098 -2.3499 0.0000 -0.0000 -0.0000 0.0000 0.0000 0.0000 0.3685 -0.4205 1.3425 2.9950 -1.0299 0.4786 -0.0000 0.0000 -0.0000 1.7137 -3.6120 -0.2235 -0.0000 0.0000 -0.0000 -34.1418 -2.8723 2.5613 -44.0429 -15.7933 -18.4979 -9.7617 5.0610 50.6357 15.3300 -4.0733 -1.2200 -0.0000 0.0000 -0.0000 34.0398 5.0583 3.4291 41.3420 6.3046 -15.2835 10.9786 0.2360 25.7384 -11.6559 2.5303 -0.7785 0.0000 0.0000 0.0000 0.4480 1.4697 0.1505 1.6467 8.0437 6.8601 3.7272 -0.1532 -5.6000 0.0000 0.0000 -0.0000
0.0700 40.2962 -79.0766 -2.1448 -7.4953 -1.3448 0.0000 0.0000 0.0000 3.8416 -0.0340 0.3625 -1.0083 -2.5269 3.5946 -2.7737 0.2078 -2.3451 0.0000 -0.0000 -0.0000 0.0000 0.0000 0.0000 0.4003 -0.3941 1.2139 3.0388 -1.0168 0.6111 -0.0000 0.0000 -0.0000 1.7280 -3.7617 -0.2015 -0.0000 0.0000 -0.0000 -34.1621 -2.8541 2.5553 -44.0220 -15.9514 -18.5034 -9.7612 5.0607 50.6443 15.2452 -4.1282 -1.2199 -0.0000 0.0000 -0.0000 34.0464 5.0606 3.4306 41.2724 6.3999 -15.3883 10.9333 0.1270 25.8649 -11.5933 2.6141 -0.7814 0.0000 0.0000 0.0000 0.4926 1.5073 0.1595 1.6425 8.1209 6.8672 3.7036 -0.1517 -5.6284 0.0000 0.0000 -0.0000
0.0779 40.2953 -79.0657 -2.1802 -7.6203 -1.3402 0.0000 0.0000 0.0000 3.8674 -0.0077 0.3717 -1.0078 -2.4367 3.5946 -2.7217 0.2045 -2.3514 0.0000 -0.0000 -0.0000 0.0000 0.0000 0.0000 0.4363 -0.3828 1.1242 3.0245 -1.0087 0.7576 -0.0000 0.0000 -0.0000 1.7832 -3.8810 -0.2134 -0.0000 0.0000 -0.0000 -34.0137 -2.8087 2.5277 -44.1820 -16.1648 -18.5745 -9.6619 5.0537 50.9115 15.3594 -4.2147 -1.2402 -0.0000 0.0000 -0.0000 34.1709 5.0825 3.4502 41.1244 6.5259 -15.4184 10.9240 0.0536 25.9018 -11.5719 2.6777 -0.7827 0.0000 0.0000 0.0000 0.5360 1.5564 0.1981 1.6193 8.1899 6.8530 3.7124 -0.1511 -5.6402 0.0000 0.0000 -0.0000
0.0873 40.2942 -79.0638 -2.1999 -7.7217 -1.3514 0.0000 0.0000 0.0000 3.8745 0.0034 0.3725 -1.0032 -2.3560 3.6174 -2.6814 0.2020 -2.3641 0.0000 -0.0000 -0.0000 0.0000 0.0000 0.0000 0.4767 -0.4145 1.2187 2.9391 -1.0247 0.7056 -0.0000 0.0000 -0.0000 1.9063 -3.8779 -0.1958 -0.0000 0.0000 -0.0000 -33.8005 -2.7748 2.5005 -44.3960 -16.2047 -18.5689 -9.6136 5.0514 51.0052 15.3968 -4.1513 -1.2354 -0.0000 0.0000 -0.0000 34.3513 5.1135 3.4784 40.9801 6.5952 -15.2327 11.0085 0.1366 25.7032 -11.6867 2.6102 -0.7846 0.0000 0.0000 0.0000 0.5361 1.5607 0.2191 1.6421 8.2823 6.8665 3.7378 -0.1521 -5.6471 0.0000 0.0000 -0.0000
0.0985 40.2933 -79.0686 -2.2111 -7.8250 -1.3547 0.0000 0.0000 0.0000 3.8668 0.0024 0.3500 -0.9838 -2.2538 3.6436 -2.6724 0.2014 -2.3623 0.0000 -0.0000 -0.0000 0.0000 0.0000 0.0000 0.5224 -0.4663 1.4441 2.8383 -1.0526 0.4556 -0.0000 0.0000 -0.0000 2.0732 -3.8455 -0.1219 -0.0000 0.0000 -0.0000 -33.7199 -2.8173 2.5123 -44.4402 -16.0336 -18.4220 -9.7158 5.0571 50.7796 15.3370 -4.0219 -1.2142 -0.0000 0.0000 -0.0000 34.4397 5.1267 3.4914 40.9641 6.6525 -14.9901 11.1126 0.2463 25.5181 -11.8971 2.4635 -0.7853 0.0000 0.0000 0.0000 0.4989 1.5148 0.1959 1.7276 8.4215 6.9269 3.7305 -0.1512 -5.6648 0.0000 0.0000 -0.0000
0.1100 40.2926 -79.0704 -2.2233 -7.9702 -1.3557 0.0000 0.0000 0.0000 3.8566 -0.0013 0.3239 -0.9535 -2.1004 3.6693 -2.6772 0.2016 -2.3474 0.0000 -0.0000 -0.0000 0.0000 0.0000 0.0000 0.5599 -0.4961 1.6282 2.7933 -1.0689 0.2211 -0.0000 0.0000 -0.0000 2.2092 -3.9481 -0.0139 -0.0000 0.0000 -0.0000 -33.7889 -2.9009 2.5500 -44.3283 -15.8699 -18.2702 -9.8522 5.0617 50.5775 15.3284 -4.0451 -1.2164 -0.0000 0.0000 -0.0000 34.3767 5.1109 3.4795 41.0963 6.7997 -14.9431 11.1254 0.1995 25.6290 -12.0408 2.3608 -0.7854 0.0000 0.0000 0.0000 0.4648 1.4725 0.1791 1.8193 8.5985 6.9878 3.6958 -0.1488 -5.6937 0.0000 0.0000 -0.0000
0.1198 40.2922 -79.0643 -2.2386 -8.1610 -1.3542 0.0000 0.0000 0.0000 3.8535 0.0019 0.3115 -0.9257 -1.9070 3.6936 -2.6727 0.2013 -2.3363 0.0000 -0.0000 -0.0000 0.0000 0.0000 0.0000 0.5495 -0.4910 1.6787 2.8595 -1.0738 0.1513 -0.0000 0.0000 -0.0000 2.2481 -4.1729 0.1030 -0.0000 0.0000 -0.0000 -33.8824 -2.9297 2.5675 -44.2431 -15.8845 -18.2121 -9.9060 5.0620 50.5484 15.3086 -4.1174 -1.2238 -0.0000 0.0000 -0.0000 34.2354 5.0815 3.4554 41.2793 6.9804 -15.0211 11.0727 0.1355 25.8312 -12.0697 2.3000 -0.7848 0.0000 0.0000 0.0000 0.4529 1.4654 0.2044 1.8747 8.7935 7.0087 3.6858 -0.1480 -5.7197 0.0000 0.0000 -0.0000
0.1274 40.2918 -79.0544 -2.2540 -8.3585 -1.3465 0.0000 0.0000 0.0000 3.8595 0.0160 0.3076 -0.9087 -1.7204 3.6985 -2.6599 0.2005 -2.3304 0.0000 -0.0000 -0.0000 0.0000 0.0000 0.0000 0.4683 -0.4722 1.6320 3.0352 -1.0863 0.2051 -0.0000 0.0000 -0.0000 2.1973 -4.3479 0.2080 -0.0000 0.0000 -0.0000 -33.9636 -2.9062 2.5634 -44.2171 -16.0032 -18.1709 -9.9321 5.0647 50.4466 15.1499 -3.9977 -1.1958 -0.0000 0.0000 -0.0000 34.1111 5.0595 3.4358 41.4150 7.0358 -14.9443 11.0729 0.3344 25.7313 -12.1042 2.2034 -0.7817 0.0000 0.0000 0.0000 0.4477 1.4681 0.2392 1.9121 8.9891 7.0032 3.7053 -0.1493 -5.7341 0.0000 0.0000 -0.0000
0.1338 40.2916 -79.0466 -2.2658 -8.5220 -1.3336 0.0000 0.0000 0.0000 3.8692 0.0348 0.3132 -0.9033 -1.5779 3.6742 -2.6546 0.2001 -2.3215 0.0000 -0.0000 -0.0000 0.0000 0.0000 0.0000 0.3518 -0.4677 1.5688 3.2391 -1.1183 0.2782 -0.0000 0.0000 -0.0000 2.1314 -4.3750 0.2707 -0.0000 0.0000 -0.0000 -34.0812 -2.9203 2.5766 -44.1399 -16.0747 -18.0901 -9.9954 5.0699 50.2515 14.9789 -3.8246 -1.1606 -0.0000 0.0000 -0.0000 34.0553 5.0550 3.4291 41.4601 6.9635 -14.6932 11.1462 0.7165 25.3979 -12.1784 2.1217 -0.7758 0.0000 0.0000 0.0000 0.4375 1.4733 0.2596 1.9523 9.1580 7.0000 3.7017 -0.1492 -5.7461 0.0000 0.0000 -0.0000
